<svg width="75" height="12" viewBox="0 0 75 12" fill="none" xmlns="http://www.w3.org/2000/svg">
<g clip-path="url(#clip0_80_30)">
<path d="M12.655 4.28914L8.6586 3.7248L6.86731 0.197544C6.73352 -0.065848 6.26606 -0.065848 6.13227 0.197544L4.34153 3.7248L0.345122 4.28914C0.0168724 4.33571 -0.114211 4.70475 0.115997 4.92258L3.01932 7.67368L2.33303 11.563C2.27833 11.8719 2.63528 12.1038 2.93049 11.952L6.50006 10.1283L10.0696 11.9525C10.3621 12.1028 10.7223 11.8754 10.6671 11.5635L9.9808 7.67418L12.8841 4.92308C13.1143 4.70476 12.9827 4.33571 12.655 4.28914Z" fill="#FDC52C"/>
</g>
<g clip-path="url(#clip1_80_30)">
<path d="M28.655 4.28914L24.6586 3.7248L22.8673 0.197544C22.7335 -0.065848 22.2661 -0.065848 22.1323 0.197544L20.3415 3.7248L16.3451 4.28914C16.0169 4.33571 15.8858 4.70475 16.116 4.92258L19.0193 7.67368L18.333 11.563C18.2783 11.8719 18.6353 12.1038 18.9305 11.952L22.5001 10.1283L26.0696 11.9525C26.3621 12.1028 26.7223 11.8754 26.6671 11.5635L25.9808 7.67418L28.8841 4.92308C29.1143 4.70476 28.9827 4.33571 28.655 4.28914Z" fill="#FDC52C"/>
</g>
<g clip-path="url(#clip2_80_30)">
<path d="M43.655 4.28914L39.6586 3.7248L37.8673 0.197544C37.7335 -0.065848 37.2661 -0.065848 37.1323 0.197544L35.3415 3.7248L31.3451 4.28914C31.0169 4.33571 30.8858 4.70475 31.116 4.92258L34.0193 7.67368L33.333 11.563C33.2783 11.8719 33.6353 12.1038 33.9305 11.952L37.5001 10.1283L41.0696 11.9525C41.3621 12.1028 41.7223 11.8754 41.6671 11.5635L40.9808 7.67418L43.8841 4.92308C44.1143 4.70476 43.9827 4.33571 43.655 4.28914Z" fill="#FDC52C"/>
</g>
<g clip-path="url(#clip3_80_30)">
<path d="M58.655 4.28914L54.6586 3.7248L52.8673 0.197544C52.7335 -0.065848 52.2661 -0.065848 52.1323 0.197544L50.3415 3.7248L46.3451 4.28914C46.0169 4.33571 45.8858 4.70475 46.116 4.92258L49.0193 7.67368L48.333 11.563C48.2783 11.8719 48.6353 12.1038 48.9305 11.952L52.5001 10.1283L56.0696 11.9525C56.3621 12.1028 56.7223 11.8754 56.6671 11.5635L55.9808 7.67418L58.8841 4.92308C59.1143 4.70476 58.9827 4.33571 58.655 4.28914Z" fill="#FDC52C"/>
</g>
<g clip-path="url(#clip4_80_30)">
<path d="M74.655 4.28914L70.6586 3.7248L68.8673 0.197544C68.7335 -0.065848 68.2661 -0.065848 68.1323 0.197544L66.3415 3.7248L62.3451 4.28914C62.0169 4.33571 61.8858 4.70475 62.116 4.92258L65.0193 7.67368L64.333 11.563C64.2783 11.8719 64.6353 12.1038 64.9305 11.952L68.5001 10.1283L72.0696 11.9525C72.3621 12.1028 72.7223 11.8754 72.6671 11.5635L71.9808 7.67418L74.8841 4.92308C75.1143 4.70476 74.9827 4.33571 74.655 4.28914Z" fill="#FDC52C"/>
</g>
<defs>
<clipPath id="clip0_80_30">
<rect width="12.9997" height="12" fill="white"/>
</clipPath>
<clipPath id="clip1_80_30">
<rect width="12.9997" height="12" fill="white" transform="translate(16)"/>
</clipPath>
<clipPath id="clip2_80_30">
<rect width="12.9997" height="12" fill="white" transform="translate(31)"/>
</clipPath>
<clipPath id="clip3_80_30">
<rect width="12.9997" height="12" fill="white" transform="translate(46)"/>
</clipPath>
<clipPath id="clip4_80_30">
<rect width="12.9997" height="12" fill="white" transform="translate(62)"/>
</clipPath>
</defs>
</svg>
